<?xml version="1.0" encoding="UTF-8" standalone="no"?>
<!DOCTYPE svg PUBLIC "-//W3C//DTD SVG 1.1//EN" "http://www.w3.org/Graphics/SVG/1.1/DTD/svg11.dtd">
<svg width="100%" height="100%" viewBox="0 0 364 131" version="1.1" xmlns="http://www.w3.org/2000/svg" xmlns:xlink="http://www.w3.org/1999/xlink" xml:space="preserve" xmlns:serif="http://www.serif.com/" style="fill-rule:evenodd;clip-rule:evenodd;stroke-linejoin:round;stroke-miterlimit:2;">
    <g transform="matrix(1,0,0,1,-60.8086,-63.8008)">
        <g id="audit-logo" transform="matrix(1,0,0,1,-140,-118)">
            <g transform="matrix(1.125,0,0,1.125,268.997,246.948)">
                <g transform="matrix(1,0,0,1,-60.6117,-57.9087)">
                    <clipPath id="_clip1">
                        <rect x="0" y="0" width="121.223" height="115.817"/>
                    </clipPath>
                    <g clip-path="url(#_clip1)">
                        <g id="logoMark" transform="matrix(2.66667,0,0,2.66667,0,0)">
                            <path id="logoMark_CompoundPathItem_" d="M21.716,43.432C9.804,43.429 0.004,33.627 0.004,21.716C0.004,9.803 9.807,-0 21.72,-0C29.45,-0 36.619,4.127 40.5,10.812C41.698,12.027 45.459,15.876 45.459,21.716C45.414,25.84 43.636,29.76 40.563,32.51C36.687,39.247 29.488,43.419 21.716,43.431ZM21.716,0.514C10.086,0.516 0.518,10.086 0.518,21.716C0.518,33.347 10.089,42.918 21.72,42.918C29.322,42.918 36.365,38.829 40.134,32.226L40.173,32.174C43.159,29.514 44.892,25.715 44.945,21.716C44.945,16.669 42.176,13.252 40.094,11.121C36.289,4.582 29.281,0.537 21.716,0.514Z" style="fill:#fff;fill-rule:nonzero;"/>
                            <ellipse id="logoMark_PathItem_" cx="37.873" cy="21.716" rx="3.715" ry="7.959" style="fill:#fff;"/>
                            <path id="logoMark_CompoundPathItem_2" d="M16.342,13.435C16.427,13.317 16.473,13.175 16.473,13.03C16.473,12.65 16.16,12.337 15.78,12.337C15.4,12.337 15.087,12.65 15.087,13.03C15.087,13.253 15.194,13.462 15.375,13.592C15.493,13.677 15.634,13.723 15.78,13.723C16.003,13.723 16.212,13.616 16.342,13.435ZM17.762,11.357C17.677,11.475 17.632,11.617 17.632,11.762C17.632,12.143 17.945,12.455 18.325,12.455C18.705,12.455 19.018,12.143 19.018,11.762C19.018,11.54 18.911,11.33 18.73,11.2C18.612,11.115 18.47,11.069 18.325,11.069C18.102,11.069 17.892,11.177 17.762,11.357L17.762,11.357ZM24.273,36.257C24.372,36.293 24.477,36.311 24.582,36.311C25.084,36.311 25.496,35.899 25.496,35.398C25.496,34.897 25.084,34.484 24.582,34.484C24.198,34.484 23.853,34.727 23.723,35.089C23.554,35.56 23.802,36.087 24.273,36.257L24.273,36.257ZM17.603,31.329C17.518,31.447 17.472,31.589 17.472,31.735C17.472,32.115 17.785,32.428 18.165,32.428C18.545,32.428 18.858,32.115 18.858,31.735C18.858,31.512 18.751,31.302 18.57,31.172C18.452,31.087 18.31,31.041 18.165,31.041C17.943,31.041 17.733,31.148 17.603,31.329L17.603,31.329ZM27.202,12.811C27.287,12.693 27.333,12.551 27.333,12.406C27.333,12.026 27.02,11.713 26.64,11.713C26.259,11.713 25.946,12.026 25.946,12.406C25.946,12.628 26.054,12.838 26.234,12.968C26.352,13.053 26.494,13.099 26.639,13.099C26.862,13.099 27.072,12.991 27.202,12.811L27.202,12.811ZM16.219,8.303C16.183,8.402 16.165,8.507 16.165,8.612C16.165,9.113 16.577,9.526 17.078,9.526C17.579,9.526 17.992,9.113 17.992,8.612C17.992,8.228 17.749,7.883 17.387,7.753C16.916,7.583 16.388,7.831 16.219,8.303ZM18.579,33.183C18.52,33.296 18.488,33.423 18.488,33.551C18.488,33.984 18.845,34.341 19.278,34.341C19.712,34.341 20.068,33.984 20.068,33.551C20.068,33.258 19.906,32.989 19.647,32.852C19.533,32.792 19.407,32.761 19.279,32.761C18.985,32.761 18.716,32.924 18.579,33.183L18.579,33.183ZM28.945,34.465C28.981,34.366 28.999,34.261 28.999,34.156C28.999,33.655 28.587,33.243 28.086,33.243C27.584,33.243 27.172,33.655 27.172,34.156C27.172,34.54 27.415,34.885 27.777,35.016C28.248,35.185 28.775,34.937 28.945,34.465L28.945,34.465ZM25.888,30.837C25.803,30.955 25.757,31.097 25.757,31.242C25.757,31.623 26.07,31.935 26.45,31.935C26.83,31.935 27.143,31.623 27.143,31.242C27.143,31.02 27.036,30.81 26.855,30.68C26.737,30.595 26.596,30.549 26.45,30.549C26.227,30.549 26.018,30.657 25.888,30.837L25.888,30.837ZM26.78,39.576C26.782,39.55 26.783,39.524 26.783,39.498C26.783,38.843 26.244,38.305 25.59,38.305C24.936,38.305 24.397,38.843 24.397,39.498C24.397,40.122 24.888,40.647 25.511,40.688C25.537,40.689 25.564,40.69 25.59,40.69C26.215,40.69 26.739,40.199 26.78,39.576ZM29.255,32.05C29.315,31.937 29.346,31.81 29.346,31.682C29.346,31.249 28.99,30.892 28.556,30.892C28.123,30.892 27.766,31.249 27.766,31.682C27.766,31.975 27.929,32.244 28.188,32.381C28.301,32.441 28.428,32.472 28.556,32.472C28.849,32.472 29.119,32.309 29.255,32.05ZM26.048,32.433C25.935,32.374 25.809,32.343 25.68,32.343C25.247,32.343 24.89,32.699 24.89,33.133C24.89,33.566 25.247,33.923 25.68,33.923C25.973,33.923 26.243,33.76 26.379,33.501C26.439,33.387 26.47,33.261 26.47,33.133C26.47,32.84 26.307,32.57 26.048,32.434L26.048,32.433ZM28.118,36.854C28.133,36.784 28.14,36.713 28.14,36.641C28.14,36.071 27.671,35.601 27.1,35.601C26.53,35.601 26.06,36.071 26.06,36.641C26.06,37.132 26.408,37.56 26.888,37.66C27.446,37.776 28.001,37.412 28.118,36.854L28.118,36.854ZM21.83,33.406C21.77,33.519 21.739,33.645 21.739,33.774C21.739,34.207 22.095,34.564 22.529,34.564C22.962,34.564 23.319,34.207 23.319,33.774C23.319,33.481 23.156,33.211 22.897,33.075C22.784,33.015 22.657,32.984 22.529,32.984C22.236,32.984 21.966,33.147 21.829,33.406L21.83,33.406ZM15.738,33.109C15.852,33.169 15.978,33.2 16.106,33.2C16.539,33.2 16.896,32.843 16.896,32.41C16.896,31.976 16.539,31.62 16.106,31.62C15.813,31.62 15.544,31.782 15.407,32.041C15.347,32.155 15.316,32.282 15.316,32.41C15.316,32.703 15.479,32.973 15.738,33.109L15.738,33.109ZM17.872,35.177C17.908,35.078 17.926,34.974 17.926,34.868C17.926,34.367 17.514,33.955 17.013,33.955C16.511,33.955 16.099,34.367 16.099,34.868C16.099,35.253 16.342,35.598 16.704,35.728C17.175,35.897 17.702,35.649 17.872,35.178L17.872,35.177ZM19.502,37.457C19.517,37.387 19.524,37.316 19.524,37.245C19.524,36.674 19.055,36.205 18.484,36.205C17.914,36.205 17.444,36.674 17.444,37.245C17.444,37.736 17.792,38.163 18.272,38.263C18.83,38.379 19.385,38.015 19.502,37.458L19.502,37.457ZM13.382,7.427C13.368,7.497 13.36,7.568 13.36,7.64C13.36,8.21 13.83,8.68 14.4,8.68C14.971,8.68 15.44,8.21 15.44,7.64C15.44,7.149 15.093,6.722 14.612,6.622C14.542,6.607 14.471,6.6 14.399,6.6C13.909,6.6 13.481,6.947 13.381,7.428L13.382,7.427ZM15.146,30.917C15.264,31.002 15.405,31.048 15.551,31.048C15.931,31.048 16.244,30.735 16.244,30.355C16.244,29.975 15.931,29.662 15.551,29.662C15.328,29.662 15.119,29.769 14.988,29.95C14.903,30.068 14.857,30.21 14.857,30.356C14.857,30.578 14.964,30.788 15.145,30.918L15.146,30.917ZM21.707,39.949C21.709,39.923 21.709,39.896 21.709,39.87C21.709,39.216 21.171,38.678 20.517,38.678C19.862,38.678 19.324,39.216 19.324,39.87C19.324,40.495 19.815,41.019 20.438,41.06C21.091,41.103 21.663,40.602 21.706,39.949L21.707,39.949ZM12.917,12.44C12.857,12.553 12.826,12.68 12.826,12.808C12.826,13.241 13.183,13.598 13.616,13.598C14.05,13.598 14.406,13.241 14.406,12.808C14.406,12.515 14.243,12.246 13.985,12.109C13.871,12.049 13.745,12.018 13.616,12.018C13.323,12.018 13.053,12.181 12.917,12.44ZM20.527,10.813C20.442,10.931 20.396,11.073 20.396,11.218C20.396,11.598 20.709,11.911 21.089,11.911C21.469,11.911 21.782,11.598 21.782,11.218C21.782,10.996 21.675,10.786 21.494,10.656C21.376,10.571 21.235,10.525 21.09,10.525C20.867,10.525 20.657,10.633 20.527,10.814L20.527,10.813ZM21.686,35.974C21.722,35.875 21.74,35.77 21.74,35.665C21.74,35.164 21.328,34.751 20.826,34.751C20.325,34.751 19.913,35.164 19.913,35.665C19.913,36.049 20.156,36.394 20.517,36.524C20.989,36.694 21.517,36.446 21.686,35.974L21.686,35.974ZM20.398,31.919C20.313,32.037 20.267,32.179 20.267,32.324C20.267,32.704 20.58,33.017 20.96,33.017C21.341,33.017 21.654,32.704 21.654,32.324C21.654,32.101 21.546,31.892 21.366,31.762C21.248,31.677 21.106,31.631 20.96,31.631C20.738,31.631 20.528,31.738 20.398,31.919ZM15.59,10.605C15.53,10.719 15.499,10.845 15.499,10.973C15.499,11.406 15.856,11.763 16.289,11.763C16.723,11.763 17.079,11.406 17.079,10.973C17.079,10.68 16.917,10.411 16.658,10.274C16.544,10.214 16.418,10.183 16.289,10.183C15.996,10.183 15.726,10.346 15.59,10.605ZM12.914,9.996C12.878,10.096 12.86,10.201 12.86,10.306C12.86,10.807 13.273,11.22 13.774,11.22C14.275,11.22 14.687,10.807 14.687,10.306C14.687,9.922 14.445,9.577 14.083,9.447C13.983,9.411 13.879,9.392 13.773,9.392C13.389,9.392 13.044,9.635 12.914,9.996L12.914,9.996ZM23.927,37.751C23.942,37.681 23.949,37.61 23.949,37.539C23.949,36.968 23.48,36.499 22.909,36.499C22.339,36.499 21.869,36.968 21.869,37.539C21.869,38.029 22.217,38.457 22.697,38.557C23.256,38.673 23.811,38.309 23.927,37.751ZM23.213,31.746C23.128,31.864 23.082,32.006 23.082,32.152C23.082,32.532 23.395,32.845 23.775,32.845C24.155,32.845 24.468,32.532 24.468,32.152C24.468,31.929 24.361,31.72 24.18,31.589C24.062,31.504 23.921,31.459 23.775,31.459C23.553,31.459 23.343,31.566 23.213,31.747ZM13.053,14.59C12.968,14.708 12.922,14.85 12.922,14.995C12.922,15.375 13.235,15.688 13.615,15.688C13.995,15.688 14.308,15.375 14.308,14.995C14.308,14.772 14.201,14.563 14.02,14.433C13.902,14.348 13.761,14.302 13.615,14.302C13.392,14.302 13.183,14.409 13.053,14.59ZM9.787,27.578C9.823,27.478 9.841,27.374 9.841,27.268C9.841,26.767 9.429,26.355 8.928,26.355C8.427,26.355 8.014,26.767 8.014,27.268C8.014,27.652 8.257,27.997 8.619,28.128C9.09,28.297 9.617,28.049 9.787,27.577ZM6.27,29.182C6.272,29.156 6.273,29.13 6.273,29.104C6.273,28.45 5.734,27.911 5.08,27.911C4.426,27.911 3.887,28.45 3.887,29.104C3.887,29.728 4.378,30.253 5.001,30.294C5.027,30.296 5.054,30.297 5.08,30.297C5.705,30.297 6.229,29.806 6.27,29.182ZM7.613,24.543C7.712,24.579 7.817,24.597 7.922,24.597C8.423,24.597 8.835,24.185 8.835,23.684C8.835,23.183 8.423,22.771 7.922,22.771C7.538,22.771 7.193,23.013 7.063,23.375C6.893,23.846 7.141,24.373 7.612,24.543L7.613,24.543ZM28.263,29.218C28.178,29.336 28.132,29.478 28.132,29.623C28.132,30.003 28.445,30.316 28.825,30.316C29.205,30.316 29.518,30.003 29.518,29.623C29.518,29.4 29.411,29.191 29.23,29.061C29.112,28.976 28.97,28.93 28.825,28.93C28.602,28.93 28.393,29.037 28.262,29.218L28.263,29.218ZM7.483,26.291C7.498,26.221 7.505,26.15 7.505,26.078C7.505,25.508 7.035,25.038 6.465,25.038C5.894,25.038 5.425,25.508 5.425,26.078C5.425,26.569 5.772,26.996 6.253,27.096C6.811,27.213 7.366,26.849 7.483,26.291ZM6.871,22.022C6.886,21.952 6.893,21.881 6.893,21.81C6.893,21.239 6.424,20.77 5.853,20.77C5.283,20.77 4.813,21.239 4.813,21.81C4.813,22.301 5.161,22.728 5.641,22.828C6.2,22.944 6.755,22.58 6.871,22.022ZM7.531,11.396C7.557,11.398 7.584,11.398 7.61,11.398C8.264,11.398 8.803,10.86 8.803,10.206C8.803,9.551 8.264,9.013 7.61,9.013C6.985,9.013 6.461,9.504 6.42,10.127C6.377,10.78 6.878,11.352 7.531,11.396ZM12.532,26.251C12.617,26.133 12.663,25.991 12.663,25.846C12.663,25.466 12.35,25.153 11.97,25.153C11.59,25.153 11.277,25.466 11.277,25.846C11.277,26.069 11.384,26.278 11.565,26.408C11.873,26.631 12.31,26.56 12.532,26.251ZM12.369,36.633C12.371,36.607 12.372,36.58 12.372,36.554C12.372,35.9 11.833,35.362 11.179,35.362C10.525,35.362 9.986,35.9 9.986,36.554C9.986,37.179 10.477,37.703 11.1,37.744C11.126,37.746 11.153,37.747 11.179,37.747C11.804,37.747 12.328,37.256 12.369,36.633ZM14.069,30.808C14.129,30.695 14.16,30.569 14.16,30.44C14.16,30.007 13.803,29.65 13.37,29.65C12.936,29.65 12.58,30.007 12.58,30.44C12.58,30.733 12.743,31.003 13.001,31.139C13.115,31.199 13.242,31.231 13.37,31.231C13.663,31.231 13.933,31.068 14.069,30.808L14.069,30.808ZM12.047,28.254C12.106,28.141 12.138,28.014 12.138,27.886C12.138,27.453 11.781,27.096 11.348,27.096C10.914,27.096 10.558,27.453 10.558,27.886C10.558,28.179 10.72,28.449 10.979,28.585C11.093,28.645 11.219,28.676 11.348,28.676C11.641,28.676 11.911,28.513 12.047,28.254L12.047,28.254ZM9.809,33.038C9.794,33.108 9.787,33.179 9.787,33.25C9.787,33.821 10.256,34.29 10.827,34.29C11.397,34.29 11.867,33.821 11.867,33.25C11.867,32.759 11.519,32.332 11.039,32.232C10.48,32.116 9.925,32.479 9.809,33.038ZM9.979,30.147C9.943,30.246 9.925,30.351 9.925,30.457C9.925,30.958 10.337,31.37 10.839,31.37C11.34,31.37 11.752,30.958 11.752,30.457C11.752,30.072 11.509,29.727 11.148,29.597C10.676,29.428 10.149,29.676 9.979,30.147ZM6.673,16.358C6.603,16.343 6.532,16.336 6.46,16.336C5.89,16.336 5.42,16.806 5.42,17.376C5.42,17.947 5.89,18.416 6.46,18.416C6.951,18.416 7.378,18.069 7.478,17.588C7.595,17.03 7.231,16.475 6.673,16.358ZM10.784,15.003C10.725,15.117 10.693,15.243 10.693,15.371C10.693,15.804 11.05,16.161 11.483,16.161C11.917,16.161 12.273,15.804 12.273,15.371C12.273,15.078 12.111,14.809 11.852,14.672C11.738,14.612 11.612,14.581 11.483,14.581C11.191,14.581 10.921,14.744 10.784,15.003ZM10.696,19.891C10.611,20.009 10.565,20.151 10.565,20.296C10.565,20.677 10.878,20.989 11.258,20.989C11.639,20.989 11.951,20.677 11.951,20.296C11.951,20.074 11.844,19.864 11.663,19.734C11.546,19.649 11.404,19.603 11.258,19.603C11.036,19.603 10.826,19.71 10.696,19.891ZM12.448,16.969C12.33,16.884 12.189,16.838 12.043,16.838C11.663,16.838 11.35,17.151 11.35,17.531C11.35,17.911 11.663,18.224 12.043,18.224C12.266,18.224 12.475,18.117 12.605,17.936C12.828,17.628 12.757,17.191 12.448,16.969ZM10.68,22.716C10.595,22.834 10.549,22.976 10.549,23.121C10.549,23.501 10.862,23.814 11.242,23.814C11.623,23.814 11.935,23.501 11.935,23.121C11.935,22.899 11.828,22.689 11.647,22.559C11.339,22.337 10.902,22.408 10.68,22.716ZM13.819,27.748C13.701,27.663 13.559,27.618 13.414,27.618C13.034,27.618 12.721,27.93 12.721,28.311C12.721,28.691 13.034,29.004 13.414,29.004C13.637,29.004 13.846,28.896 13.976,28.716C14.198,28.407 14.128,27.971 13.819,27.748L13.819,27.748ZM13.873,32.194C13.774,32.159 13.669,32.141 13.564,32.141C13.063,32.141 12.65,32.553 12.65,33.054C12.65,33.555 13.063,33.968 13.564,33.968C13.948,33.968 14.293,33.725 14.423,33.363C14.593,32.892 14.344,32.364 13.873,32.194L13.873,32.194ZM2.495,19.14C2.493,19.166 2.492,19.192 2.492,19.218C2.492,19.872 3.03,20.411 3.685,20.411C4.339,20.411 4.877,19.872 4.877,19.218C4.877,18.593 4.387,18.069 3.763,18.028C3.737,18.026 3.711,18.025 3.685,18.025C3.06,18.025 2.536,18.516 2.495,19.14ZM3.862,14.298C3.86,14.324 3.859,14.35 3.859,14.376C3.859,15.03 4.398,15.569 5.052,15.569C5.706,15.569 6.245,15.03 6.245,14.376C6.245,13.751 5.754,13.227 5.13,13.186C4.477,13.143 3.905,13.645 3.862,14.298L3.862,14.298ZM3.625,25.543C3.651,25.544 3.677,25.545 3.703,25.545C4.357,25.545 4.896,25.007 4.896,24.353C4.896,23.698 4.357,23.16 3.703,23.16C3.078,23.16 2.554,23.651 2.513,24.274C2.511,24.3 2.51,24.326 2.51,24.353C2.51,24.977 3.001,25.502 3.625,25.543ZM7.051,19.587C7.016,19.686 6.998,19.79 6.998,19.895C6.998,20.397 7.41,20.809 7.911,20.809C8.412,20.809 8.824,20.397 8.824,19.895C8.824,19.511 8.582,19.166 8.22,19.036C8.121,19 8.016,18.982 7.911,18.982C7.527,18.982 7.181,19.225 7.051,19.587ZM10.462,24.225C10.349,24.165 10.223,24.134 10.095,24.134C9.661,24.134 9.305,24.491 9.305,24.924C9.305,25.357 9.661,25.714 10.095,25.714C10.387,25.714 10.657,25.551 10.793,25.293C10.853,25.179 10.885,25.053 10.885,24.924C10.885,24.631 10.722,24.361 10.462,24.225ZM8.964,21.363C8.905,21.477 8.873,21.603 8.873,21.731C8.873,22.165 9.23,22.521 9.663,22.521C10.097,22.521 10.453,22.165 10.453,21.731C10.453,21.439 10.291,21.169 10.032,21.032C9.918,20.972 9.792,20.941 9.663,20.941C9.37,20.941 9.101,21.104 8.964,21.363ZM17.378,5.986C17.364,6.055 17.356,6.127 17.356,6.198C17.356,6.769 17.826,7.238 18.396,7.238C18.967,7.238 19.436,6.769 19.436,6.198C19.436,5.707 19.089,5.28 18.608,5.18C18.05,5.064 17.495,5.427 17.378,5.986ZM10.479,17.786C10.366,17.726 10.24,17.695 10.111,17.695C9.678,17.695 9.321,18.051 9.321,18.485C9.321,18.918 9.678,19.275 10.111,19.275C10.404,19.275 10.674,19.112 10.81,18.853C10.87,18.74 10.902,18.613 10.902,18.484C10.902,18.191 10.739,17.922 10.479,17.785L10.479,17.786ZM32.82,14.272C32.785,14.371 32.767,14.476 32.767,14.581C32.767,15.082 33.179,15.495 33.68,15.495C34.181,15.495 34.593,15.082 34.593,14.581C34.593,14.197 34.351,13.852 33.989,13.722C33.518,13.552 32.99,13.8 32.821,14.272L32.82,14.272ZM31.987,9.031C32.002,8.961 32.009,8.89 32.009,8.819C32.009,8.248 31.54,7.779 30.969,7.779C30.399,7.779 29.929,8.248 29.929,8.819C29.929,9.31 30.277,9.737 30.757,9.837C31.316,9.953 31.871,9.589 31.987,9.031L31.987,9.031ZM32.21,11.973C32.246,11.874 32.264,11.77 32.264,11.664C32.264,11.163 31.852,10.751 31.351,10.751C30.849,10.751 30.437,11.163 30.437,11.664C30.437,12.049 30.68,12.394 31.041,12.524C31.513,12.693 32.041,12.445 32.21,11.973L32.21,11.973ZM31.398,37.889C31.399,37.862 31.4,37.836 31.4,37.81C31.4,37.156 30.862,36.617 30.207,36.617C29.553,36.617 29.015,37.156 29.015,37.81C29.015,38.435 29.506,38.959 30.129,39C30.155,39.002 30.181,39.003 30.207,39.003C30.832,39.003 31.357,38.512 31.398,37.888L31.398,37.889ZM31.87,34.901C31.885,34.831 31.892,34.76 31.892,34.688C31.892,34.118 31.423,33.648 30.852,33.648C30.282,33.648 29.812,34.118 29.812,34.688C29.812,35.179 30.16,35.606 30.64,35.707C31.199,35.823 31.754,35.459 31.87,34.901L31.87,34.901ZM32.945,8.329C32.943,8.355 32.942,8.381 32.942,8.407C32.942,9.061 33.481,9.6 34.135,9.6C34.789,9.6 35.328,9.061 35.328,8.407C35.328,7.782 34.837,7.258 34.213,7.217C34.187,7.215 34.161,7.214 34.135,7.214C33.51,7.214 32.986,7.705 32.945,8.329ZM35.075,11.95C35.089,11.88 35.097,11.809 35.097,11.737C35.097,11.167 34.627,10.697 34.057,10.697C33.486,10.697 33.017,11.167 33.017,11.737C33.017,12.228 33.364,12.655 33.845,12.755C34.403,12.872 34.958,12.508 35.075,11.95L35.075,11.95ZM21.521,3.64C21.522,3.613 21.523,3.587 21.523,3.561C21.523,2.907 20.985,2.368 20.331,2.368C19.676,2.368 19.138,2.907 19.138,3.561C19.138,4.186 19.629,4.71 20.253,4.751C20.279,4.753 20.305,4.754 20.331,4.754C20.956,4.754 21.48,4.263 21.521,3.639L21.521,3.64ZM9.959,6.812C9.957,6.838 9.956,6.864 9.956,6.89C9.956,7.544 10.494,8.083 11.149,8.083C11.803,8.083 12.341,7.544 12.341,6.89C12.341,6.265 11.851,5.741 11.227,5.7C11.201,5.698 11.175,5.697 11.149,5.697C10.524,5.697 9.999,6.188 9.959,6.812ZM15.538,3.424C15.511,3.422 15.485,3.422 15.459,3.422C14.805,3.422 14.266,3.96 14.266,4.614C14.266,5.269 14.805,5.807 15.459,5.807C16.084,5.807 16.608,5.316 16.649,4.693C16.692,4.04 16.19,3.467 15.538,3.424ZM9.924,9.86C9.91,9.93 9.902,10.001 9.902,10.073C9.902,10.643 10.372,11.113 10.942,11.113C11.513,11.113 11.982,10.643 11.982,10.073C11.982,9.582 11.635,9.154 11.154,9.054C10.596,8.938 10.041,9.302 9.924,9.86ZM9.246,13.574C9.26,13.504 9.268,13.433 9.268,13.362C9.268,12.791 8.798,12.322 8.228,12.322C7.657,12.322 7.188,12.791 7.188,13.362C7.188,13.852 7.535,14.28 8.016,14.38C8.574,14.496 9.129,14.132 9.246,13.574ZM31.351,5.663C31.353,5.637 31.354,5.611 31.354,5.584C31.354,4.93 30.815,4.392 30.161,4.392C29.507,4.392 28.968,4.93 28.968,5.584C28.968,6.209 29.459,6.733 30.082,6.774C30.735,6.818 31.308,6.316 31.351,5.663ZM10.15,12.527C10.114,12.626 10.096,12.73 10.096,12.836C10.096,13.337 10.508,13.749 11.01,13.749C11.511,13.749 11.923,13.337 11.923,12.836C11.923,12.451 11.68,12.106 11.319,11.976C11.219,11.941 11.115,11.922 11.01,11.922C10.625,11.922 10.28,12.165 10.15,12.527ZM9.841,16.421C9.876,16.322 9.894,16.217 9.894,16.112C9.894,15.611 9.482,15.198 8.981,15.198C8.48,15.198 8.067,15.611 8.067,16.112C8.067,16.496 8.31,16.841 8.672,16.971C8.771,17.007 8.876,17.025 8.981,17.025C9.366,17.025 9.711,16.783 9.841,16.421L9.841,16.421ZM25.548,2.71C25.522,2.708 25.496,2.707 25.47,2.707C24.816,2.707 24.277,3.246 24.277,3.9C24.277,4.554 24.816,5.093 25.47,5.093C26.095,5.093 26.619,4.602 26.66,3.978C26.662,3.952 26.663,3.926 26.663,3.9C26.663,3.275 26.172,2.751 25.548,2.71ZM14.097,36.764C14.167,36.779 14.239,36.786 14.31,36.786C14.88,36.786 15.35,36.317 15.35,35.746C15.35,35.176 14.88,34.706 14.31,34.706C13.819,34.706 13.392,35.054 13.292,35.534C13.176,36.092 13.539,36.648 14.097,36.764ZM21.712,5.667C21.697,5.737 21.69,5.808 21.69,5.88C21.69,6.45 22.159,6.92 22.73,6.92C23.3,6.92 23.77,6.45 23.77,5.88C23.77,5.389 23.422,4.962 22.942,4.862C22.383,4.745 21.828,5.109 21.712,5.667ZM14.344,38.756C14.343,38.782 14.342,38.808 14.342,38.834C14.342,39.488 14.88,40.027 15.534,40.027C16.189,40.027 16.727,39.488 16.727,38.834C16.727,38.209 16.236,37.685 15.613,37.644C14.96,37.601 14.387,38.103 14.344,38.756ZM9.185,30.172C9.2,30.102 9.207,30.031 9.207,29.959C9.207,29.389 8.737,28.919 8.167,28.919C7.596,28.919 7.127,29.389 7.127,29.959C7.127,30.45 7.474,30.877 7.955,30.977C8.513,31.094 9.068,30.73 9.185,30.172ZM8.823,33.319C8.825,33.293 8.825,33.267 8.825,33.241C8.825,32.587 8.287,32.048 7.633,32.048C6.978,32.048 6.44,32.587 6.44,33.241C6.44,33.866 6.931,34.39 7.554,34.431C7.58,34.433 7.606,34.434 7.633,34.434C8.257,34.434 8.782,33.943 8.823,33.319ZM29.473,13.592C29.355,13.507 29.213,13.462 29.068,13.462C28.687,13.462 28.374,13.774 28.374,14.155C28.374,14.535 28.687,14.848 29.068,14.848C29.29,14.848 29.5,14.74 29.63,14.56C29.715,14.442 29.761,14.3 29.761,14.155C29.761,13.932 29.653,13.723 29.473,13.592L29.473,13.592ZM29.168,11.271C29.055,11.211 28.929,11.18 28.801,11.18C28.367,11.18 28.011,11.536 28.011,11.97C28.011,12.403 28.367,12.76 28.801,12.76C29.093,12.76 29.363,12.597 29.499,12.338C29.559,12.225 29.591,12.098 29.591,11.97C29.591,11.677 29.428,11.407 29.168,11.271L29.168,11.271ZM28.562,8.574C28.462,8.538 28.358,8.52 28.252,8.52C27.751,8.52 27.339,8.932 27.339,9.433C27.339,9.934 27.751,10.347 28.252,10.347C28.636,10.347 28.981,10.104 29.112,9.743C29.281,9.271 29.033,8.744 28.561,8.574L28.562,8.574ZM23.352,11.019C23.267,11.137 23.221,11.279 23.221,11.424C23.221,11.804 23.534,12.117 23.914,12.117C24.295,12.117 24.607,11.804 24.607,11.424C24.607,11.202 24.5,10.992 24.32,10.862C24.011,10.64 23.574,10.711 23.352,11.019ZM19.693,9.221C19.579,9.161 19.453,9.13 19.325,9.13C18.892,9.13 18.535,9.487 18.535,9.92C18.535,10.354 18.892,10.71 19.325,10.71C19.618,10.71 19.887,10.548 20.024,10.289C20.084,10.175 20.115,10.049 20.115,9.92C20.115,9.627 19.952,9.357 19.693,9.221ZM26.106,6.583C26.092,6.653 26.084,6.724 26.084,6.796C26.084,7.366 26.554,7.836 27.124,7.836C27.695,7.836 28.164,7.366 28.164,6.796C28.164,6.305 27.817,5.878 27.336,5.778C26.778,5.661 26.223,6.025 26.106,6.583ZM19.872,7.537C19.837,7.636 19.818,7.741 19.818,7.846C19.818,8.347 20.231,8.76 20.732,8.76C21.233,8.76 21.645,8.347 21.645,7.846C21.645,7.462 21.403,7.117 21.041,6.987C20.569,6.817 20.042,7.066 19.872,7.537ZM21.848,9.336C21.788,9.449 21.757,9.576 21.757,9.704C21.757,10.137 22.114,10.494 22.547,10.494C22.981,10.494 23.337,10.137 23.337,9.704C23.337,9.411 23.175,9.141 22.916,9.005C22.532,8.803 22.05,8.952 21.848,9.336ZM25.081,10.011C25.022,10.125 24.991,10.251 24.991,10.379C24.991,10.812 25.347,11.169 25.781,11.169C26.214,11.169 26.571,10.812 26.571,10.379C26.571,10.086 26.408,9.816 26.149,9.68C26.035,9.62 25.909,9.589 25.781,9.589C25.488,9.589 25.218,9.752 25.081,10.011ZM23.681,7.79C23.646,7.889 23.627,7.994 23.627,8.1C23.627,8.601 24.04,9.013 24.541,9.013C25.042,9.013 25.454,8.601 25.454,8.1C25.454,7.715 25.212,7.37 24.85,7.24C24.379,7.07 23.851,7.319 23.682,7.79L23.681,7.79ZM31.506,25.216C31.624,25.301 31.766,25.347 31.912,25.347C32.292,25.347 32.605,25.034 32.605,24.654C32.605,24.274 32.292,23.961 31.912,23.961C31.689,23.961 31.479,24.068 31.349,24.249C31.264,24.367 31.219,24.509 31.219,24.654C31.219,24.877 31.326,25.086 31.507,25.216L31.506,25.216ZM31.68,29.845C31.74,29.731 31.771,29.605 31.771,29.477C31.771,29.043 31.414,28.687 30.981,28.687C30.548,28.687 30.191,29.043 30.191,29.477C30.191,29.769 30.354,30.039 30.612,30.176C30.996,30.377 31.478,30.228 31.68,29.845ZM31.138,26.767C31.02,26.682 30.878,26.636 30.733,26.636C30.352,26.636 30.039,26.949 30.039,27.329C30.039,27.71 30.352,28.023 30.733,28.023C30.955,28.023 31.165,27.915 31.295,27.735C31.517,27.426 31.446,26.989 31.138,26.767L31.138,26.767ZM30.298,16.024C30.213,16.142 30.168,16.284 30.168,16.429C30.168,16.81 30.48,17.123 30.861,17.123C31.241,17.123 31.554,16.81 31.554,16.429C31.554,16.207 31.446,15.997 31.266,15.867C31.148,15.782 31.006,15.736 30.861,15.736C30.638,15.736 30.429,15.844 30.298,16.024L30.298,16.024ZM30.487,13.886C30.427,13.999 30.396,14.125 30.396,14.253C30.396,14.687 30.752,15.043 31.186,15.043C31.619,15.043 31.976,14.687 31.976,14.253C31.976,13.961 31.813,13.691 31.554,13.555C31.441,13.495 31.314,13.464 31.186,13.464C30.893,13.464 30.623,13.626 30.487,13.886L30.487,13.886ZM32.131,16.666C32.072,16.779 32.04,16.905 32.04,17.033C32.04,17.467 32.397,17.823 32.83,17.823C33.264,17.823 33.62,17.467 33.62,17.033C33.62,16.741 33.458,16.471 33.199,16.335C33.085,16.275 32.959,16.243 32.83,16.243C32.538,16.243 32.268,16.406 32.131,16.666L32.131,16.666ZM32.004,32.342C32.039,32.243 32.057,32.138 32.057,32.033C32.057,31.532 31.645,31.12 31.144,31.12C30.643,31.12 30.231,31.532 30.231,32.033C30.231,32.417 30.473,32.763 30.835,32.893C30.934,32.928 31.039,32.946 31.144,32.946C31.528,32.946 31.874,32.704 32.004,32.342ZM33.255,29.978C33.354,30.014 33.459,30.032 33.564,30.032C34.065,30.032 34.478,29.62 34.478,29.118C34.478,28.617 34.065,28.205 33.564,28.205C33.18,28.205 32.835,28.448 32.705,28.809C32.669,28.909 32.651,29.013 32.651,29.118C32.651,29.503 32.893,29.848 33.255,29.978ZM32.512,19.449C32.597,19.331 32.643,19.19 32.643,19.044C32.643,18.664 32.33,18.351 31.95,18.351C31.57,18.351 31.257,18.664 31.257,19.044C31.257,19.267 31.364,19.476 31.545,19.606C31.853,19.829 32.29,19.758 32.512,19.449ZM32.403,27.283C32.516,27.342 32.643,27.373 32.771,27.373C33.204,27.373 33.561,27.017 33.561,26.583C33.561,26.15 33.204,25.793 32.771,25.793C32.478,25.793 32.208,25.956 32.072,26.215C32.012,26.329 31.981,26.455 31.981,26.583C31.981,26.876 32.144,27.146 32.403,27.283ZM32.945,31.598C32.931,31.668 32.923,31.739 32.923,31.811C32.923,32.381 33.393,32.851 33.963,32.851C34.534,32.851 35.003,32.381 35.003,31.811C35.003,31.32 34.656,30.893 34.175,30.793C33.617,30.676 33.062,31.04 32.945,31.598ZM35.348,35.07C35.35,35.043 35.351,35.017 35.351,34.991C35.351,34.337 34.813,33.798 34.158,33.798C33.504,33.798 32.966,34.337 32.966,34.991C32.966,35.616 33.457,36.14 34.08,36.181C34.733,36.224 35.305,35.723 35.348,35.07L35.348,35.07Z" style="fill:#fff;fill-rule:nonzero;"/>
                        </g>
                    </g>
                </g>
            </g>
            <g transform="matrix(1,0,0,1,-29.6016,19.7266)">
                <g transform="matrix(66,0,0,66,382.91,224.773)">
                    <path d="M0.632,-0.703L0.586,-0.703C0.578,-0.703 0.571,-0.699 0.568,-0.691L0.335,-0.107L0.282,-0.237L0.099,-0.691C0.096,-0.699 0.089,-0.703 0.081,-0.703L0.033,-0.703C0.022,-0.703 0.017,-0.696 0.021,-0.686L0.302,-0.012C0.305,-0.004 0.312,-0 0.32,-0L0.345,-0C0.353,-0 0.36,-0.004 0.363,-0.012L0.644,-0.686C0.648,-0.696 0.643,-0.703 0.632,-0.703Z" style="fill:#fff;fill-rule:nonzero;"/>
                </g>
                <g transform="matrix(66,0,0,66,426.866,224.773)">
                    <path d="M0.112,-0.556C0.144,-0.556 0.168,-0.578 0.168,-0.61C0.168,-0.642 0.144,-0.664 0.112,-0.664C0.081,-0.663 0.057,-0.642 0.057,-0.61C0.057,-0.578 0.081,-0.556 0.112,-0.556ZM0.092,-0L0.134,-0C0.143,-0 0.149,-0.006 0.149,-0.015L0.149,-0.445C0.149,-0.454 0.143,-0.46 0.134,-0.46L0.093,-0.46C0.084,-0.46 0.078,-0.454 0.078,-0.445L0.077,-0.015C0.077,-0.006 0.083,-0 0.092,-0Z" style="fill:#fff;fill-rule:nonzero;"/>
                </g>
                <g transform="matrix(66,0,0,66,441.782,224.773)">
                    <path d="M0.291,0.009C0.363,0.009 0.404,-0.01 0.432,-0.027C0.44,-0.032 0.443,-0.039 0.438,-0.048L0.419,-0.08C0.416,-0.085 0.41,-0.087 0.401,-0.082C0.374,-0.067 0.342,-0.056 0.292,-0.056C0.189,-0.056 0.116,-0.13 0.116,-0.229C0.116,-0.33 0.19,-0.404 0.298,-0.404C0.341,-0.404 0.375,-0.393 0.402,-0.377C0.41,-0.372 0.417,-0.373 0.422,-0.381L0.44,-0.408C0.445,-0.416 0.444,-0.423 0.436,-0.429C0.403,-0.451 0.36,-0.469 0.291,-0.469C0.152,-0.469 0.044,-0.365 0.044,-0.229C0.044,-0.094 0.142,0.009 0.291,0.009Z" style="fill:#fff;fill-rule:nonzero;"/>
                </g>
                <g transform="matrix(66,0,0,66,489.962,224.773)">
                    <path d="M0.54,-0.639C0.549,-0.639 0.555,-0.645 0.555,-0.654L0.555,-0.688C0.555,-0.697 0.549,-0.703 0.54,-0.703L0.116,-0.703C0.107,-0.703 0.101,-0.697 0.101,-0.688L0.101,-0.015C0.101,-0.006 0.107,-0 0.116,-0L0.54,-0C0.549,-0 0.555,-0.006 0.555,-0.015L0.555,-0.049C0.555,-0.058 0.549,-0.064 0.54,-0.064L0.172,-0.064L0.172,-0.325L0.492,-0.325C0.501,-0.325 0.507,-0.331 0.507,-0.34L0.507,-0.374C0.507,-0.383 0.501,-0.389 0.492,-0.389L0.172,-0.389L0.172,-0.639L0.54,-0.639Z" style="fill:#fff;fill-rule:nonzero;"/>
                </g>
                <g transform="matrix(66,0,0,66,528.902,224.773)">
                    <path d="M0.473,-0.46L0.429,-0.46C0.421,-0.46 0.414,-0.456 0.411,-0.448L0.257,-0.08L0.103,-0.448C0.1,-0.456 0.093,-0.46 0.085,-0.46L0.037,-0.46C0.026,-0.46 0.022,-0.452 0.026,-0.442L0.219,0.003L0.146,0.178C0.142,0.188 0.147,0.195 0.158,0.195L0.199,0.195C0.207,0.195 0.214,0.191 0.217,0.183L0.3,-0.013L0.484,-0.442C0.488,-0.452 0.484,-0.46 0.473,-0.46Z" style="fill:#fff;fill-rule:nonzero;"/>
                </g>
                <g transform="matrix(66,0,0,66,561.308,224.773)">
                    <path d="M0.491,-0.239C0.491,-0.376 0.403,-0.469 0.277,-0.469C0.139,-0.469 0.045,-0.365 0.045,-0.23C0.045,-0.092 0.147,0.009 0.289,0.009C0.369,0.009 0.42,-0.016 0.456,-0.042C0.463,-0.048 0.464,-0.055 0.459,-0.063L0.442,-0.09C0.437,-0.099 0.43,-0.099 0.422,-0.093C0.392,-0.072 0.354,-0.052 0.296,-0.052C0.197,-0.052 0.124,-0.116 0.114,-0.208L0.475,-0.208C0.484,-0.208 0.491,-0.213 0.491,-0.223L0.491,-0.239ZM0.279,-0.408C0.356,-0.408 0.416,-0.353 0.423,-0.268L0.423,-0.266L0.116,-0.266C0.13,-0.351 0.193,-0.408 0.279,-0.408Z" style="fill:#fff;fill-rule:nonzero;"/>
                </g>
            </g>
            <g transform="matrix(1,0,0,1,-28.3888,0.664063)">
                <g transform="matrix(30,0,0,30,464.773,291.937)">
                    <path d="M0.693,-0.021L0.403,-0.689C0.399,-0.698 0.391,-0.703 0.381,-0.703L0.321,-0.703C0.311,-0.703 0.302,-0.698 0.299,-0.689L0.006,-0.021C0.001,-0.008 0.007,-0 0.021,-0L0.128,-0C0.138,-0 0.145,-0.005 0.149,-0.015L0.199,-0.136L0.5,-0.136L0.55,-0.015C0.554,-0.005 0.561,-0 0.571,-0L0.678,-0C0.692,-0 0.698,-0.008 0.693,-0.021ZM0.35,-0.507L0.456,-0.253L0.243,-0.253L0.35,-0.507Z" style="fill:#ff7b00;fill-rule:nonzero;"/>
                </g>
                <g transform="matrix(30,0,0,30,493.525,291.937)">
                    <path d="M0.385,0.009C0.571,0.009 0.694,-0.099 0.694,-0.302L0.694,-0.685C0.694,-0.696 0.687,-0.703 0.676,-0.703L0.575,-0.703C0.563,-0.703 0.557,-0.696 0.557,-0.685L0.557,-0.291C0.557,-0.196 0.501,-0.116 0.386,-0.116C0.27,-0.116 0.214,-0.196 0.214,-0.291L0.214,-0.685C0.214,-0.696 0.208,-0.703 0.196,-0.703L0.094,-0.703C0.082,-0.703 0.076,-0.696 0.076,-0.685L0.076,-0.302C0.076,-0.099 0.199,0.009 0.385,0.009Z" style="fill:#ff7b00;fill-rule:nonzero;"/>
                </g>
                <g transform="matrix(30,0,0,30,524.977,291.937)">
                    <path d="M0.356,-0.703L0.104,-0.703C0.092,-0.703 0.085,-0.696 0.085,-0.685L0.085,-0.018C0.085,-0.007 0.092,-0 0.104,-0L0.356,-0C0.578,-0 0.725,-0.141 0.725,-0.352C0.725,-0.563 0.578,-0.703 0.356,-0.703ZM0.35,-0.122L0.223,-0.122L0.223,-0.581L0.35,-0.581C0.497,-0.581 0.585,-0.489 0.585,-0.35C0.585,-0.213 0.497,-0.122 0.35,-0.122Z" style="fill:#ff7b00;fill-rule:nonzero;"/>
                </g>
                <g transform="matrix(30,0,0,30,556.429,291.937)">
                    <path d="M0.104,-0L0.205,-0C0.216,-0 0.223,-0.007 0.223,-0.018L0.223,-0.685C0.223,-0.696 0.216,-0.703 0.205,-0.703L0.104,-0.703C0.092,-0.703 0.085,-0.696 0.085,-0.685L0.085,-0.018C0.085,-0.007 0.092,-0 0.104,-0Z" style="fill:#ff7b00;fill-rule:nonzero;"/>
                </g>
                <g transform="matrix(30,0,0,30,574.021,291.937)">
                    <path d="M0.597,-0.703L0.029,-0.703C0.017,-0.703 0.011,-0.696 0.011,-0.685L0.011,-0.6C0.011,-0.588 0.017,-0.581 0.029,-0.581L0.245,-0.581L0.245,-0.018C0.245,-0.007 0.251,-0 0.263,-0L0.364,-0C0.376,-0 0.383,-0.007 0.383,-0.018L0.383,-0.581L0.597,-0.581C0.609,-0.581 0.616,-0.588 0.616,-0.6L0.616,-0.685C0.616,-0.696 0.609,-0.703 0.597,-0.703Z" style="fill:#ff7b00;fill-rule:nonzero;"/>
                </g>
            </g>
        </g>
    </g>
</svg>
